<svg xmlns="http://www.w3.org/2000/svg" viewBox="0 0 646.26 1060.86"><defs><style>.cls-1{isolation:isolate;}.cls-2{fill:#003340;}.cls-3{fill:#a2bfdc;}.cls-4{fill:#a3b6bf;mix-blend-mode:multiply;}.cls-14,.cls-4{opacity:0.46;}.cls-5{fill:#032630;}.cls-6{fill:#5b8295;}.cls-7{fill:#0c0c0c;}.cls-8{fill:#03566f;}.cls-9{fill:#00b0da;}.cls-10{fill:#fff;opacity:0.57;}.cls-11,.cls-14{fill:#4890c0;}.cls-12{fill:#adc6e0;}.cls-13{fill:#0084a4;}.cls-14{mix-blend-mode:screen;}.cls-15{fill:#bfdae7;}</style></defs><g class="cls-1"><g id="Layer_2" data-name="Layer 2"><g id="Layer_1-2" data-name="Layer 1"><path class="cls-2" d="M434.46,636.76c-1.22,59.36,2.86,64.76-4,76a143.68,143.68,0,0,1-46.7,0,27.17,27.17,0,0,1-4-14.32V636.76Z"/><path class="cls-3" d="M316.8,654.34H492.51c31.14-32.49,67.18-73.2,72.88-114,2.8-21,5.28-49.77-1.91-67.22-14.61-35.45-62.7-56.06-81.35-58.24a837.13,837.13,0,0,0-146.9-4.16c-6,.35-11.33,3-16.86,5.25-29.06,11.77-59.7,36.1-70.1,60.19-8,18.63-2.29,49.72.5,70.5C254.46,587.46,285.66,621.85,316.8,654.34Z"/><path class="cls-4" d="M514.66,604.27H430.1c-68.82,0-123.34-50.88-131.27-107.63-4.26-31.83-8-51.86-.14-70.87-22.19,13-42.37,31.79-50.42,50.44s-2.29,49.72.5,70.5c5.69,40.75,36.89,75.14,68,107.63H492.51c15.87-16.56,33-35.26,46.77-55A63.88,63.88,0,0,1,514.66,604.27Z"/><path class="cls-5" d="M469.76,430.65c0,11.8-28.13,21.36-62.83,21.36s-62.84-9.56-62.84-21.36,28.14-21.37,62.84-21.37S469.76,418.85,469.76,430.65Z"/><path class="cls-6" d="M406.93,409.28c-1.62,0-3.22,0-4.81.07,32.46.83,58,10,58,21.3s-25.57,20.47-58,21.3c1.59,0,3.19.06,4.81.06,34.7,0,62.83-9.56,62.83-21.36S441.63,409.28,406.93,409.28Z"/><path class="cls-6" d="M440,412.48V415c40.73,12.83,15.71,35.6-37.88,37,1.59,0,3.19.06,4.81.06C469.3,452,494.11,423.89,440,412.48Z"/><path class="cls-5" d="M556.67,468.13c-11.82-2-26.06,23.77-31.81,57.46s-.82,62.59,11,64.54,26.06-23.77,31.8-57.46S568.49,470.08,556.67,468.13Z"/><path class="cls-6" d="M567.67,532.67c-.27,1.57-.55,3.12-.86,4.65,4.54-31.65-.46-58-11.73-59.86s-24.74,21.44-31,52.81c.22-1.55.47-3.11.73-4.68,5.75-33.69,20-59.42,31.81-57.46S573.41,499,567.67,532.67Z"/><path class="cls-5" d="M257.56,474.38c11.82-2,26.06,23.77,31.8,57.47s.82,62.58-11,64.54-26.06-23.78-31.8-57.47S245.74,476.33,257.56,474.38Z"/><path class="cls-6" d="M246.56,538.92c.27,1.57.55,3.12.85,4.65-4.53-31.65.47-58,11.74-59.86s24.74,21.44,31,52.81c-.23-1.55-.47-3.11-.74-4.67-5.74-33.7-20-59.43-31.8-57.47S240.81,505.23,246.56,538.92Z"/><path class="cls-7" d="M407.23,621.09c-42.37,0-76.71-34.7-76.71-77.52s34.34-77.52,76.71-77.52S484,500.76,484,543.57,449.6,621.09,407.23,621.09Z"/><path class="cls-8" d="M407.23,612.13c-37.47,0-67.84-30.69-67.84-68.56S369.76,475,407.23,475s67.85,30.7,67.85,68.56S444.7,612.13,407.23,612.13Z"/><path class="cls-9" d="M407.23,595c-28.07,0-50.83-23-50.83-51.38s22.76-51.37,50.83-51.37,50.84,23,50.84,51.37S435.31,595,407.23,595Z"/><path class="cls-10" d="M441.8,583.31a27.19,27.19,0,1,1,26.91-27.19A27.05,27.05,0,0,1,441.8,583.31Z"/><path class="cls-2" d="M434.46,355.21c-1.22,59.36,2.86,64.76-4,76a142.95,142.95,0,0,1-46.7,0,27.17,27.17,0,0,1-4-14.32V355.21Z"/><path class="cls-3" d="M253.4,226.57c-5-18.15-13.08-35.65-21.34-48.13l-5.47-22.06-16.27,3.84c-11.5,3.35-16,42.48-8.87,78.61,7.56,35.9,29.26,69.72,43.27,67.16l17.92-4.23-5.27-21.23C259.42,265.26,258.3,245.29,253.4,226.57Z"/><path class="cls-2" d="M269.67,222.73c9.28,35.49,5,75.44-8.68,79.42-14,2.56-35.72-31.26-43.27-67.16-7.12-36.13-2.63-75.26,8.87-78.61C238.37,154.24,259.88,187.23,269.67,222.73Z"/><path class="cls-3" d="M227.59,166.16c0-31.58,10.78-59.63,26.94-83.95,62.18-93.52,193-109.38,278.57-36.59,36.66,31.2,66.57,71.65,66.57,120.54,0,126.32-83.29,228.72-186,228.72S227.59,292.48,227.59,166.16Z"/><path class="cls-11" d="M397.45,96.12c-83.8-9.31-136.88,11-162.31,24.94a144,144,0,0,0-4.28,15.26c13.31-8.67,47.34-26.88,103.22-30.93a947.74,947.74,0,0,0-.89,98.2c2,47.49,5.72,97.54,27.85,141.53a214.76,214.76,0,0,0,33.59,48.59,154,154,0,0,0,16.15,1.15,204.38,204.38,0,0,1-40.11-54.59c-21.16-42.07-24.79-90.81-26.7-137.12a933.49,933.49,0,0,1,.95-98.35,348.3,348.3,0,0,1,51.34,2c116.8,13,201.6,76.81,202.44,77.46l.43-.57q.38-6,.49-12C578.5,157.16,500,107.52,397.45,96.12Z"/><path class="cls-4" d="M559.66,71.53a124.71,124.71,0,0,1,12.88,54.56c0,126.32-83.3,228.72-186,228.72-49.86,0-95.14-24.12-128.54-63.38,33.23,62.3,90.55,103.45,155.68,103.45,102.75,0,186-102.4,186-228.72C599.67,129.85,583.17,98.2,559.66,71.53Z"/><path class="cls-7" d="M451,254c-33.78,0-61.17-30.28-61.17-67.64S417.17,118.7,451,118.7s61.16,30.29,61.16,67.65S484.73,254,451,254Z"/><ellipse class="cls-8" cx="450.95" cy="186.35" rx="54.09" ry="59.83"/><path class="cls-9" d="M451,231.18c-22.39,0-40.54-20.07-40.54-44.83s18.15-44.83,40.54-44.83,40.53,20.07,40.53,44.83S473.33,231.18,451,231.18Z"/><path class="cls-10" d="M443.08,197.29c-11.84,0-21.45-10.62-21.45-23.72s9.61-23.73,21.45-23.73,21.46,10.62,21.46,23.73S454.93,197.29,443.08,197.29Z"/><ellipse class="cls-7" cx="275.79" cy="183.24" rx="45.46" ry="65.3"/><ellipse class="cls-8" cx="275.79" cy="183.24" rx="40.21" ry="57.75"/><ellipse class="cls-9" cx="275.79" cy="183.24" rx="30.13" ry="43.28"/><path class="cls-10" d="M266.44,193.81c-8.81,0-15.95-10.26-15.95-22.91s7.14-22.9,15.95-22.9,15.94,10.25,15.94,22.9S275.24,193.81,266.44,193.81Z"/><path class="cls-2" d="M288.72,47.86c4.77-1.46,9.65,1.7,11.77,7.61,3.74,10.5,8.17,26.49,3.25,33.07-7.62,10.19-40,11.37-53.46,29.4s-22.47-14.48-16.17-36.34C238.94,64.85,273,52.65,288.72,47.86Z"/><path class="cls-12" d="M284.24,38.29C289,36.83,293.9,40,296,45.91c3.74,10.5,8.17,26.49,3.24,33.07-7.61,10.19-40,11.37-53.45,29.39S223.34,93.89,229.64,72C234.47,55.29,268.56,43.09,284.24,38.29Z"/><path class="cls-2" d="M432.16,35.72a14,14,0,0,0-15.74,7.61c-5,10.5-10.93,26.49-4.35,33.07,10.19,10.19,53.48,11.37,71.51,29.4s30.06-14.48,21.63-36.34C498.75,52.71,453.15,40.51,432.16,35.72Z"/><path class="cls-12" d="M438.15,26.15a14,14,0,0,0-15.75,7.62c-5,10.5-10.93,26.49-4.35,33.07,10.19,10.19,53.49,11.37,71.51,29.4s30.06-14.49,21.63-36.35C504.73,43.15,459.13,31,438.15,26.15Z"/><path class="cls-13" d="M614.91,244.09c-6.25,16.73-17.45,31.68-29.42,41.28L579,304.46l-26.34-8.9c-18.7-6.71-30-42.52-22.4-73,8.41-31.14,40-60.61,62.93-57.38l29.39,5.28-6.47,20.76C620.86,206.7,621,226.44,614.91,244.09Z"/><path class="cls-3" d="M641.39,251.3c11.6-34.73.94-76.35-21.54-81.31-22.9-3.41-54.57,26.93-63.07,59.08-7.7,31.48,3.51,68.49,22.2,75.39C598,310.44,629.1,284.71,641.39,251.3Z"/><path class="cls-2" d="M572.87,230.05c-9,27.7-3.28,54.35,12.71,59.54s36.24-13.08,45.21-40.78,3.28-54.36-12.71-59.54S581.84,202.34,572.87,230.05Z"/><path class="cls-3" d="M582.2,233.07c-6.08,18.77-2.22,36.84,8.62,40.35s24.56-8.87,30.64-27.64,2.22-36.83-8.62-40.34S588.28,214.3,582.2,233.07Z"/><path class="cls-2" d="M411.94,290.48c8,2.23-12.66,47.93-57.75,48.12-45.09-.19-65.75-45.89-57.76-48.12,6.61-3.39,29.38,20.44,57.76,19.12C382.57,310.92,405.34,287.09,411.94,290.48Z"/><path class="cls-11" d="M411.94,290.48a3.35,3.35,0,0,0-1.83-.32c-.94,11.67-21.57,43.87-59.41,44-22-.09-38.21-11-48.09-22.47,9.31,12.85,26.74,26.77,51.58,26.88C399.28,338.41,419.94,292.71,411.94,290.48Z"/><path class="cls-2" d="M634.62,742.22c15.87-98.4-31.13-192.36-58.12-221a17.53,17.53,0,0,0-25.58,24c.53.58,31.37,34.83,47.09,106.52a226.47,226.47,0,0,1,2,84.89,17.53,17.53,0,0,0,34.62,5.59Z"/><path class="cls-3" d="M640.61,741.26s-7.77-15.85-29.32-11-15,26.45-21.16,36.23-12.74,23.43-8.34,26.21,20.72-12.23,24.12-17.61,13.66,23.33,15.55,31.71-12.17,33.36-6.79,36.76,27.86-31.67,30.8-36.32S642.42,749.24,640.61,741.26Z"/><path class="cls-3" d="M556.92,495.66C543,500.45,526.23,511.8,533,549.47s46,103.09,83.62,106S624.37,472.47,556.92,495.66Z"/><path class="cls-11" d="M623.92,653.2c-1.29-9.41-8.71-62.06-16.56-89.47,7-7.39,6.55-23.6-1.63-39-9.3-17.48-25.12-27.24-35.34-21.8s-10.95,24-1.65,41.49c8.66,16.25,23,25.83,33.12,22.72,7.84,27.8,15.29,81.69,16.1,87.68l-.15.68A9.78,9.78,0,0,0,623.92,653.2Z"/><path class="cls-3" d="M604.52,525.41c8.69,16.33,8,33.68-1.55,38.76s-24.32-4-33-20.37-8-33.68,1.54-38.76S595.82,509.08,604.52,525.41Z"/><path class="cls-2" d="M604.51,525.45c-8.25-15.5-22-24.51-31.52-21,6.87,3.29,13.88,10.29,18.88,19.69,8.69,16.32,8,33.68-1.54,38.76a14.07,14.07,0,0,1-1.49.66c5.08,2.43,10.08,2.84,14.13.68C612.51,559.13,613.2,541.78,604.51,525.45Z"/><path class="cls-2" d="M154.31,619.11c52.57-7,77.37-54.21,78.53-56.49a17.53,17.53,0,0,0-31.18-16c-1,1.9-23,42.44-67.73,37.95-16.08-1.6-36.64-23.5-56.42-60.09a17.54,17.54,0,1,0-30.85,16.68c26.52,49.06,54.71,75.41,83.78,78.31A102.65,102.65,0,0,0,154.31,619.11Z"/><path class="cls-3" d="M277.85,516c7.72,12.53,13.47,31.94-15.69,56.74s-101,50.49-131.92,28.86S240.45,455.23,277.85,516Z"/><path class="cls-11" d="M126.08,595.17c7-6.46,46.12-42.42,69.58-58.62-.69-10.13,9.92-22.4,26-29.08,18.28-7.6,36.7-5.1,41.14,5.58s-6.78,25.51-25.06,33.11c-17,7.07-34.12,5.4-40-3.47-23.71,16.52-63.67,53.42-68.1,57.53l-.32.63A9.81,9.81,0,0,1,126.08,595.17Z"/><path class="cls-3" d="M222.19,508.74c-17.08,7.1-27.56,21-23.42,30.93s21.37,12.32,38.45,5.22,27.56-20.95,23.41-30.93S239.27,501.64,222.19,508.74Z"/><path class="cls-2" d="M222.17,508.77c16.21-6.74,32.54-5,37.71,3.76-7.4-1.81-17.27-.85-27.09,3.23-17.08,7.1-27.56,21-23.42,30.93a12.43,12.43,0,0,0,.73,1.46c-5.46-1.34-9.58-4.21-11.35-8.45C194.6,529.72,205.09,515.87,222.17,508.77Z"/><path class="cls-3" d="M95,471.37c3.5.41,5,4.74,2.71,7.43-3.49,4.11-8.67,10.87-10.89,17-3.51,9.68-6.86,31.14-17.21,36s-22,7.41-31.85-.59-14-26.18-19-28-22.44-22.6-18-27.37c3.08-3.29,21.56,20.33,25.64,18.42S11.12,463.7,13,458.63s6.66-5.8,9.38,0,13.88,26.79,16.24,25.69S30,451.23,30,446.82s6.44-6.26,8.06-2.81,11.14,34,13.67,34.92,1-32.3.86-36.17,6.61-6.73,9.85-3.47S61.57,482,65.68,485s8,5.25,10.93.05C78.91,481,87.12,470.45,95,471.37Z"/><path class="cls-14" d="M31.41,511.75c1.85,6.19,11.6,8.73,21.78,5.69s16.93-10.52,15.08-16.7-11.6-8.73-21.78-5.69S29.56,505.57,31.41,511.75Z"/><path class="cls-2" d="M478.52,935.8a17.52,17.52,0,0,0,15.36-19.46L468.7,701.92A17.53,17.53,0,1,0,433.87,706l25.19,214.42A17.53,17.53,0,0,0,478.52,935.8Z"/><path class="cls-2" d="M331.25,929.9l32.61-223.4a17.53,17.53,0,1,0-34.7-5.07L296.55,924.84a17.53,17.53,0,0,0,34.7,5.06Z"/><path class="cls-3" d="M485.45,677.16c41.63,0-27.33,106.42-84.67,106.42-47.64,0-121.63-105.7-80-105.7Z"/><path class="cls-4" d="M320.78,677.88l18.67-.08c16,30.87,55.62,71.47,85.14,71.47,23.32,0,48.57-17.61,67.51-38.49-15.06,31.18-55.46,72.8-91.32,72.8C353.14,783.58,279.15,677.88,320.78,677.88Z"/><path class="cls-3" d="M449.29,839.13l-3,195.18,107.41-4.12L506.52,838.83c-2.47-10-7.66-19.4-14.18-22.67-7-3.53-17.24-2.87-24.64-.73C459.41,817.82,449.29,830.2,449.29,839.13Z"/><path class="cls-4" d="M449.29,839.13a17.84,17.84,0,0,1,1.51-6.67c8.46,75,32.83,188.66,102.93,197.73l-107.41,4.12Z"/><path class="cls-11" d="M499.9,1032.26,494.22,966l-46.94,5,.05-3.11L494,962.93,481.17,813.68c1.05,0,2.08.1,3.1.22l9.45,110.24h33.85l.33,1.35c.14.58.29,1.16.43,1.75H494l9,104.9Z"/><path class="cls-11" d="M490.29,958.69a1.35,1.35,0,1,1-1.34-1.35A1.35,1.35,0,0,1,490.29,958.69Z"/><path class="cls-11" d="M497.58,919.63A1.6,1.6,0,1,1,496,918,1.61,1.61,0,0,1,497.58,919.63Z"/><path class="cls-15" d="M438.65,1060.61s129.92,1.55,139.63-3.09-25.53-34.67-44-40.22C500,1007,450.41,1019.88,442.23,1039S438.65,1060.61,438.65,1060.61Z"/><path class="cls-2" d="M450.85,1050.3s-4.6-2.58,3.58-21.66a19,19,0,0,1,1.72-3.09c-6.8,3.84-11.78,8.41-13.92,13.4-8.19,19.09-3.58,21.66-3.58,21.66s129.92,1.55,139.63-3.09c2.67-1.27,2-4.45-.87-8.52C542.16,1051.39,450.85,1050.3,450.85,1050.3Z"/><path class="cls-3" d="M348.72,831.88l3,195.38-108.39-4.13L291,831.58c2.5-10.05,7.73-19.42,14.31-22.69,7.12-3.54,17.4-2.87,24.87-.74C338.5,810.55,348.72,823,348.72,831.88Z"/><path class="cls-4" d="M348.72,831.88a17.78,17.78,0,0,0-1.53-6.68c-8.54,75.06-33.13,188.85-103.87,197.93l108.39,4.13Z"/><path class="cls-11" d="M303.62,920.08H269l.71-2.84.06-.26h34.16l9.53-110.35c1-.12,2.08-.19,3.13-.22L303.64,955.8l47.05,4.93v.16c0,.11,0,.22,0,.33l0,2.62-47.37-5-5.72,66.31-1.07,0-2-.08Z"/><path class="cls-11" d="M307.34,951.56a1.36,1.36,0,1,0,1.36-1.35A1.36,1.36,0,0,0,307.34,951.56Z"/><path class="cls-11" d="M300,912.46a1.62,1.62,0,1,0,1.62-1.61A1.62,1.62,0,0,0,300,912.46Z"/><path class="cls-15" d="M355.93,1053.67s-161.82-3.39-171.13-9,51.62-64.37,70.7-68.1c23.81-4.66,82.09,24.47,104.56,44.69C371,1031.16,355.93,1053.67,355.93,1053.67Z"/><path class="cls-2" d="M274.21,1044.41a61.28,61.28,0,0,0,43.67-19.83c5.53-6,11.81-13.06,18.11-20.42,9.66,5.81,18.12,11.79,24.07,17.14,7.26,6.54,3.08,18.64-.57,26-2.16,4-3.54,6.28-3.56,6.32h-1.35l-1,0h-.45l-.8,0h-.14l-.75,0-2,0h-2.42l-.92,0-.61,0-1.83,0-.87,0-.74,0h-.32l-1.12,0h-.72l-2-.06-1.11,0h-.31l-2.52-.07h-1.47l-1,0h0l-2,0-.62,0-.63,0-.9,0-3.21-.09-1,0-1.48,0-.86,0-10.69-.31-1,0-1.61,0h0l-.83,0h0l-3.13-.1-.75,0-3.76-.12-.55,0-2.23-.07h-.37c-8.25-.27-16.85-.56-25.45-.89l-.56,0-16.5-.67-1.13,0c-3.3-.15-6.55-.29-9.75-.45h-.07c-8.33-.4-16.27-.82-23.45-1.28h0q-4.62-.29-8.78-.6h0c-4.85-.36-9.18-.73-12.84-1.12h0l-2-.22h0c-2.91-.33-5.3-.68-7.09-1h0l-.56-.12h0l-.25-.06h0l-.73-.18C216.35,1045.65,251.12,1045,274.21,1044.41Z"/><rect class="cls-2" x="299.67" y="668.73" width="206.74" height="38.47" rx="12.58" transform="translate(806.07 1375.94) rotate(-180)"/></g></g></g></svg>